# xmcd CD database file
#
# Track frame offsets:
#	182
#	11020
#	18505
#	30087
#	39870
#	48352
#	51940
#	71442
#	80460
#	98745
#	111320
#	130070
#	140277
#	153310
#	169192
#	188317
#	200247
#	218055
#	232777
#	244197
#	267007
#	289252
#
# Disc length: 4176 seconds
#
# Revision: 1
# Processed by: cddbd v1.5.2PL0 Copyright (c) Steve Scherf et al.
# Submitted via: CDex 1.70beta2
#
DISCID=1f104e16
DTITLE=Anne Clark - Trilogy
DYEAR=1986
DGENRE=New Age
TTITLE0=The Sitting Room
TTITLE1=Swimming
TTITLE2=An Ordinary Life
TTITLE3=Shades
TTITLE4=Short Story Party Mix
TTITLE5=The Power Game
TTITLE6=All We Have To Be Thankful For
TTITLE7=Contact
TTITLE8=Sleeper In Metropolis
TTITLE9=Poem For A Nuclear Romance
TTITLE10=Wallies
TTITLE11=Lovers Audition
TTITLE12=Poets Turmoil No 364
TTITLE13=Echoes Remain Forever
TTITLE14=All Night Party
TTITLE15=Pandoras Box
TTITLE16=Feel
TTITLE17=The Last Emotion
TTITLE18=Nothing At All
TTITLE19=True Love Tales
TTITLE20=Self Desctruct
TTITLE21=Our Darkness
EXTD=YEAR: 1986
EXTT0=
EXTT1=
EXTT2=
EXTT3=
EXTT4=
EXTT5=
EXTT6=
EXTT7=
EXTT8=
EXTT9=
EXTT10=
EXTT11=
EXTT12=
EXTT13=
EXTT14=
EXTT15=
EXTT16=
EXTT17=
EXTT18=
EXTT19=
EXTT20=
EXTT21=
PLAYORDER=
